<?xml version="1.0" encoding="utf-8" standalone="no"?>
<!DOCTYPE svg PUBLIC "-//W3C//DTD SVG 1.1//EN"
  "http://www.w3.org/Graphics/SVG/1.1/DTD/svg11.dtd">
<svg xmlns:xlink="http://www.w3.org/1999/xlink" width="432pt" height="432pt" viewBox="0 0 432 432" xmlns="http://www.w3.org/2000/svg" version="1.1">
 <metadata>
  <rdf:RDF xmlns:dc="http://purl.org/dc/elements/1.1/" xmlns:cc="http://creativecommons.org/ns#" xmlns:rdf="http://www.w3.org/1999/02/22-rdf-syntax-ns#">
   <cc:Work>
    <dc:type rdf:resource="http://purl.org/dc/dcmitype/StillImage"/>
    <dc:date>2023-10-31T16:36:37.104913</dc:date>
    <dc:format>image/svg+xml</dc:format>
    <dc:creator>
     <cc:Agent>
      <dc:title>Matplotlib v3.6.1, https://matplotlib.org/</dc:title>
     </cc:Agent>
    </dc:creator>
   </cc:Work>
  </rdf:RDF>
 </metadata>
 <defs>
  <style type="text/css">*{stroke-linejoin: round; stroke-linecap: butt}</style>
 </defs>
 <g id="figure_1">
  <g id="patch_1">
   <path d="M 0 432 
L 432 432 
L 432 0 
L 0 0 
z
" style="fill: #ffffff"/>
  </g>
  <g id="axes_1">
   <g id="patch_2">
    <path d="M 55.08 384.48 
L 387.72 384.48 
L 387.72 51.84 
L 55.08 51.84 
z
" style="fill: #ffffff"/>
   </g>
   <g id="matplotlib.axis_1">
    <g id="xtick_1">
     <g id="line2d_1">
      <path d="M 58.341176 384.48 
L 58.341176 51.84 
" clip-path="url(#p780cf65982)" style="fill: none; stroke: #b0b0b0; stroke-width: 0.8; stroke-linecap: square"/>
     </g>
     <g id="line2d_2">
      <defs>
       <path id="m6d14abcdde" d="M 0 0 
L 0 3.5 
" style="stroke: #000000; stroke-width: 0.8"/>
      </defs>
      <g>
       <use xlink:href="#m6d14abcdde" x="58.341176" y="384.48" style="stroke: #000000; stroke-width: 0.8"/>
      </g>
     </g>
     <g id="text_1">
      <!-- 0.0 -->
      <g transform="translate(47.208989 402.117813) scale(0.14 -0.14)">
       <defs>
        <path id="DejaVuSans-30" d="M 2034 4250 
Q 1547 4250 1301 3770 
Q 1056 3291 1056 2328 
Q 1056 1369 1301 889 
Q 1547 409 2034 409 
Q 2525 409 2770 889 
Q 3016 1369 3016 2328 
Q 3016 3291 2770 3770 
Q 2525 4250 2034 4250 
z
M 2034 4750 
Q 2819 4750 3233 4129 
Q 3647 3509 3647 2328 
Q 3647 1150 3233 529 
Q 2819 -91 2034 -91 
Q 1250 -91 836 529 
Q 422 1150 422 2328 
Q 422 3509 836 4129 
Q 1250 4750 2034 4750 
z
" transform="scale(0.015625)"/>
        <path id="DejaVuSans-2e" d="M 684 794 
L 1344 794 
L 1344 0 
L 684 0 
L 684 794 
z
" transform="scale(0.015625)"/>
       </defs>
       <use xlink:href="#DejaVuSans-30"/>
       <use xlink:href="#DejaVuSans-2e" x="63.623047"/>
       <use xlink:href="#DejaVuSans-30" x="95.410156"/>
      </g>
     </g>
    </g>
    <g id="xtick_2">
     <g id="line2d_3">
      <path d="M 123.564706 384.48 
L 123.564706 51.84 
" clip-path="url(#p780cf65982)" style="fill: none; stroke: #b0b0b0; stroke-width: 0.8; stroke-linecap: square"/>
     </g>
     <g id="line2d_4">
      <g>
       <use xlink:href="#m6d14abcdde" x="123.564706" y="384.48" style="stroke: #000000; stroke-width: 0.8"/>
      </g>
     </g>
     <g id="text_2">
      <!-- 0.2 -->
      <g transform="translate(112.432518 402.117813) scale(0.14 -0.14)">
       <defs>
        <path id="DejaVuSans-32" d="M 1228 531 
L 3431 531 
L 3431 0 
L 469 0 
L 469 531 
Q 828 903 1448 1529 
Q 2069 2156 2228 2338 
Q 2531 2678 2651 2914 
Q 2772 3150 2772 3378 
Q 2772 3750 2511 3984 
Q 2250 4219 1831 4219 
Q 1534 4219 1204 4116 
Q 875 4013 500 3803 
L 500 4441 
Q 881 4594 1212 4672 
Q 1544 4750 1819 4750 
Q 2544 4750 2975 4387 
Q 3406 4025 3406 3419 
Q 3406 3131 3298 2873 
Q 3191 2616 2906 2266 
Q 2828 2175 2409 1742 
Q 1991 1309 1228 531 
z
" transform="scale(0.015625)"/>
       </defs>
       <use xlink:href="#DejaVuSans-30"/>
       <use xlink:href="#DejaVuSans-2e" x="63.623047"/>
       <use xlink:href="#DejaVuSans-32" x="95.410156"/>
      </g>
     </g>
    </g>
    <g id="xtick_3">
     <g id="line2d_5">
      <path d="M 188.788235 384.48 
L 188.788235 51.84 
" clip-path="url(#p780cf65982)" style="fill: none; stroke: #b0b0b0; stroke-width: 0.8; stroke-linecap: square"/>
     </g>
     <g id="line2d_6">
      <g>
       <use xlink:href="#m6d14abcdde" x="188.788235" y="384.48" style="stroke: #000000; stroke-width: 0.8"/>
      </g>
     </g>
     <g id="text_3">
      <!-- 0.4 -->
      <g transform="translate(177.656048 402.117813) scale(0.14 -0.14)">
       <defs>
        <path id="DejaVuSans-34" d="M 2419 4116 
L 825 1625 
L 2419 1625 
L 2419 4116 
z
M 2253 4666 
L 3047 4666 
L 3047 1625 
L 3713 1625 
L 3713 1100 
L 3047 1100 
L 3047 0 
L 2419 0 
L 2419 1100 
L 313 1100 
L 313 1709 
L 2253 4666 
z
" transform="scale(0.015625)"/>
       </defs>
       <use xlink:href="#DejaVuSans-30"/>
       <use xlink:href="#DejaVuSans-2e" x="63.623047"/>
       <use xlink:href="#DejaVuSans-34" x="95.410156"/>
      </g>
     </g>
    </g>
    <g id="xtick_4">
     <g id="line2d_7">
      <path d="M 254.011765 384.48 
L 254.011765 51.84 
" clip-path="url(#p780cf65982)" style="fill: none; stroke: #b0b0b0; stroke-width: 0.8; stroke-linecap: square"/>
     </g>
     <g id="line2d_8">
      <g>
       <use xlink:href="#m6d14abcdde" x="254.011765" y="384.48" style="stroke: #000000; stroke-width: 0.8"/>
      </g>
     </g>
     <g id="text_4">
      <!-- 0.6 -->
      <g transform="translate(242.879577 402.117813) scale(0.14 -0.14)">
       <defs>
        <path id="DejaVuSans-36" d="M 2113 2584 
Q 1688 2584 1439 2293 
Q 1191 2003 1191 1497 
Q 1191 994 1439 701 
Q 1688 409 2113 409 
Q 2538 409 2786 701 
Q 3034 994 3034 1497 
Q 3034 2003 2786 2293 
Q 2538 2584 2113 2584 
z
M 3366 4563 
L 3366 3988 
Q 3128 4100 2886 4159 
Q 2644 4219 2406 4219 
Q 1781 4219 1451 3797 
Q 1122 3375 1075 2522 
Q 1259 2794 1537 2939 
Q 1816 3084 2150 3084 
Q 2853 3084 3261 2657 
Q 3669 2231 3669 1497 
Q 3669 778 3244 343 
Q 2819 -91 2113 -91 
Q 1303 -91 875 529 
Q 447 1150 447 2328 
Q 447 3434 972 4092 
Q 1497 4750 2381 4750 
Q 2619 4750 2861 4703 
Q 3103 4656 3366 4563 
z
" transform="scale(0.015625)"/>
       </defs>
       <use xlink:href="#DejaVuSans-30"/>
       <use xlink:href="#DejaVuSans-2e" x="63.623047"/>
       <use xlink:href="#DejaVuSans-36" x="95.410156"/>
      </g>
     </g>
    </g>
    <g id="xtick_5">
     <g id="line2d_9">
      <path d="M 319.235294 384.48 
L 319.235294 51.84 
" clip-path="url(#p780cf65982)" style="fill: none; stroke: #b0b0b0; stroke-width: 0.8; stroke-linecap: square"/>
     </g>
     <g id="line2d_10">
      <g>
       <use xlink:href="#m6d14abcdde" x="319.235294" y="384.48" style="stroke: #000000; stroke-width: 0.8"/>
      </g>
     </g>
     <g id="text_5">
      <!-- 0.8 -->
      <g transform="translate(308.103107 402.117813) scale(0.14 -0.14)">
       <defs>
        <path id="DejaVuSans-38" d="M 2034 2216 
Q 1584 2216 1326 1975 
Q 1069 1734 1069 1313 
Q 1069 891 1326 650 
Q 1584 409 2034 409 
Q 2484 409 2743 651 
Q 3003 894 3003 1313 
Q 3003 1734 2745 1975 
Q 2488 2216 2034 2216 
z
M 1403 2484 
Q 997 2584 770 2862 
Q 544 3141 544 3541 
Q 544 4100 942 4425 
Q 1341 4750 2034 4750 
Q 2731 4750 3128 4425 
Q 3525 4100 3525 3541 
Q 3525 3141 3298 2862 
Q 3072 2584 2669 2484 
Q 3125 2378 3379 2068 
Q 3634 1759 3634 1313 
Q 3634 634 3220 271 
Q 2806 -91 2034 -91 
Q 1263 -91 848 271 
Q 434 634 434 1313 
Q 434 1759 690 2068 
Q 947 2378 1403 2484 
z
M 1172 3481 
Q 1172 3119 1398 2916 
Q 1625 2713 2034 2713 
Q 2441 2713 2670 2916 
Q 2900 3119 2900 3481 
Q 2900 3844 2670 4047 
Q 2441 4250 2034 4250 
Q 1625 4250 1398 4047 
Q 1172 3844 1172 3481 
z
" transform="scale(0.015625)"/>
       </defs>
       <use xlink:href="#DejaVuSans-30"/>
       <use xlink:href="#DejaVuSans-2e" x="63.623047"/>
       <use xlink:href="#DejaVuSans-38" x="95.410156"/>
      </g>
     </g>
    </g>
    <g id="xtick_6">
     <g id="line2d_11">
      <path d="M 384.458824 384.48 
L 384.458824 51.84 
" clip-path="url(#p780cf65982)" style="fill: none; stroke: #b0b0b0; stroke-width: 0.8; stroke-linecap: square"/>
     </g>
     <g id="line2d_12">
      <g>
       <use xlink:href="#m6d14abcdde" x="384.458824" y="384.48" style="stroke: #000000; stroke-width: 0.8"/>
      </g>
     </g>
     <g id="text_6">
      <!-- 1.0 -->
      <g transform="translate(373.326636 402.117813) scale(0.14 -0.14)">
       <defs>
        <path id="DejaVuSans-31" d="M 794 531 
L 1825 531 
L 1825 4091 
L 703 3866 
L 703 4441 
L 1819 4666 
L 2450 4666 
L 2450 531 
L 3481 531 
L 3481 0 
L 794 0 
L 794 531 
z
" transform="scale(0.015625)"/>
       </defs>
       <use xlink:href="#DejaVuSans-31"/>
       <use xlink:href="#DejaVuSans-2e" x="63.623047"/>
       <use xlink:href="#DejaVuSans-30" x="95.410156"/>
      </g>
     </g>
    </g>
    <g id="text_7">
     <!-- Recall -->
     <g transform="translate(200.515937 419.667188) scale(0.14 -0.14)">
      <defs>
       <path id="DejaVuSans-52" d="M 2841 2188 
Q 3044 2119 3236 1894 
Q 3428 1669 3622 1275 
L 4263 0 
L 3584 0 
L 2988 1197 
Q 2756 1666 2539 1819 
Q 2322 1972 1947 1972 
L 1259 1972 
L 1259 0 
L 628 0 
L 628 4666 
L 2053 4666 
Q 2853 4666 3247 4331 
Q 3641 3997 3641 3322 
Q 3641 2881 3436 2590 
Q 3231 2300 2841 2188 
z
M 1259 4147 
L 1259 2491 
L 2053 2491 
Q 2509 2491 2742 2702 
Q 2975 2913 2975 3322 
Q 2975 3731 2742 3939 
Q 2509 4147 2053 4147 
L 1259 4147 
z
" transform="scale(0.015625)"/>
       <path id="DejaVuSans-65" d="M 3597 1894 
L 3597 1613 
L 953 1613 
Q 991 1019 1311 708 
Q 1631 397 2203 397 
Q 2534 397 2845 478 
Q 3156 559 3463 722 
L 3463 178 
Q 3153 47 2828 -22 
Q 2503 -91 2169 -91 
Q 1331 -91 842 396 
Q 353 884 353 1716 
Q 353 2575 817 3079 
Q 1281 3584 2069 3584 
Q 2775 3584 3186 3129 
Q 3597 2675 3597 1894 
z
M 3022 2063 
Q 3016 2534 2758 2815 
Q 2500 3097 2075 3097 
Q 1594 3097 1305 2825 
Q 1016 2553 972 2059 
L 3022 2063 
z
" transform="scale(0.015625)"/>
       <path id="DejaVuSans-63" d="M 3122 3366 
L 3122 2828 
Q 2878 2963 2633 3030 
Q 2388 3097 2138 3097 
Q 1578 3097 1268 2742 
Q 959 2388 959 1747 
Q 959 1106 1268 751 
Q 1578 397 2138 397 
Q 2388 397 2633 464 
Q 2878 531 3122 666 
L 3122 134 
Q 2881 22 2623 -34 
Q 2366 -91 2075 -91 
Q 1284 -91 818 406 
Q 353 903 353 1747 
Q 353 2603 823 3093 
Q 1294 3584 2113 3584 
Q 2378 3584 2631 3529 
Q 2884 3475 3122 3366 
z
" transform="scale(0.015625)"/>
       <path id="DejaVuSans-61" d="M 2194 1759 
Q 1497 1759 1228 1600 
Q 959 1441 959 1056 
Q 959 750 1161 570 
Q 1363 391 1709 391 
Q 2188 391 2477 730 
Q 2766 1069 2766 1631 
L 2766 1759 
L 2194 1759 
z
M 3341 1997 
L 3341 0 
L 2766 0 
L 2766 531 
Q 2569 213 2275 61 
Q 1981 -91 1556 -91 
Q 1019 -91 701 211 
Q 384 513 384 1019 
Q 384 1609 779 1909 
Q 1175 2209 1959 2209 
L 2766 2209 
L 2766 2266 
Q 2766 2663 2505 2880 
Q 2244 3097 1772 3097 
Q 1472 3097 1187 3025 
Q 903 2953 641 2809 
L 641 3341 
Q 956 3463 1253 3523 
Q 1550 3584 1831 3584 
Q 2591 3584 2966 3190 
Q 3341 2797 3341 1997 
z
" transform="scale(0.015625)"/>
       <path id="DejaVuSans-6c" d="M 603 4863 
L 1178 4863 
L 1178 0 
L 603 0 
L 603 4863 
z
" transform="scale(0.015625)"/>
      </defs>
      <use xlink:href="#DejaVuSans-52"/>
      <use xlink:href="#DejaVuSans-65" x="64.982422"/>
      <use xlink:href="#DejaVuSans-63" x="126.505859"/>
      <use xlink:href="#DejaVuSans-61" x="181.486328"/>
      <use xlink:href="#DejaVuSans-6c" x="242.765625"/>
      <use xlink:href="#DejaVuSans-6c" x="270.548828"/>
     </g>
    </g>
   </g>
   <g id="matplotlib.axis_2">
    <g id="ytick_1">
     <g id="line2d_13">
      <path d="M 55.08 381.218824 
L 387.72 381.218824 
" clip-path="url(#p780cf65982)" style="fill: none; stroke: #b0b0b0; stroke-width: 0.8; stroke-linecap: square"/>
     </g>
     <g id="line2d_14">
      <defs>
       <path id="m2d899a776d" d="M 0 0 
L -3.5 0 
" style="stroke: #000000; stroke-width: 0.8"/>
      </defs>
      <g>
       <use xlink:href="#m2d899a776d" x="55.08" y="381.218824" style="stroke: #000000; stroke-width: 0.8"/>
      </g>
     </g>
     <g id="text_8">
      <!-- 0.0 -->
      <g transform="translate(25.815625 386.53773) scale(0.14 -0.14)">
       <use xlink:href="#DejaVuSans-30"/>
       <use xlink:href="#DejaVuSans-2e" x="63.623047"/>
       <use xlink:href="#DejaVuSans-30" x="95.410156"/>
      </g>
     </g>
    </g>
    <g id="ytick_2">
     <g id="line2d_15">
      <path d="M 55.08 315.995294 
L 387.72 315.995294 
" clip-path="url(#p780cf65982)" style="fill: none; stroke: #b0b0b0; stroke-width: 0.8; stroke-linecap: square"/>
     </g>
     <g id="line2d_16">
      <g>
       <use xlink:href="#m2d899a776d" x="55.08" y="315.995294" style="stroke: #000000; stroke-width: 0.8"/>
      </g>
     </g>
     <g id="text_9">
      <!-- 0.2 -->
      <g transform="translate(25.815625 321.3142) scale(0.14 -0.14)">
       <use xlink:href="#DejaVuSans-30"/>
       <use xlink:href="#DejaVuSans-2e" x="63.623047"/>
       <use xlink:href="#DejaVuSans-32" x="95.410156"/>
      </g>
     </g>
    </g>
    <g id="ytick_3">
     <g id="line2d_17">
      <path d="M 55.08 250.771765 
L 387.72 250.771765 
" clip-path="url(#p780cf65982)" style="fill: none; stroke: #b0b0b0; stroke-width: 0.8; stroke-linecap: square"/>
     </g>
     <g id="line2d_18">
      <g>
       <use xlink:href="#m2d899a776d" x="55.08" y="250.771765" style="stroke: #000000; stroke-width: 0.8"/>
      </g>
     </g>
     <g id="text_10">
      <!-- 0.4 -->
      <g transform="translate(25.815625 256.090671) scale(0.14 -0.14)">
       <use xlink:href="#DejaVuSans-30"/>
       <use xlink:href="#DejaVuSans-2e" x="63.623047"/>
       <use xlink:href="#DejaVuSans-34" x="95.410156"/>
      </g>
     </g>
    </g>
    <g id="ytick_4">
     <g id="line2d_19">
      <path d="M 55.08 185.548235 
L 387.72 185.548235 
" clip-path="url(#p780cf65982)" style="fill: none; stroke: #b0b0b0; stroke-width: 0.8; stroke-linecap: square"/>
     </g>
     <g id="line2d_20">
      <g>
       <use xlink:href="#m2d899a776d" x="55.08" y="185.548235" style="stroke: #000000; stroke-width: 0.8"/>
      </g>
     </g>
     <g id="text_11">
      <!-- 0.6 -->
      <g transform="translate(25.815625 190.867142) scale(0.14 -0.14)">
       <use xlink:href="#DejaVuSans-30"/>
       <use xlink:href="#DejaVuSans-2e" x="63.623047"/>
       <use xlink:href="#DejaVuSans-36" x="95.410156"/>
      </g>
     </g>
    </g>
    <g id="ytick_5">
     <g id="line2d_21">
      <path d="M 55.08 120.324706 
L 387.72 120.324706 
" clip-path="url(#p780cf65982)" style="fill: none; stroke: #b0b0b0; stroke-width: 0.8; stroke-linecap: square"/>
     </g>
     <g id="line2d_22">
      <g>
       <use xlink:href="#m2d899a776d" x="55.08" y="120.324706" style="stroke: #000000; stroke-width: 0.8"/>
      </g>
     </g>
     <g id="text_12">
      <!-- 0.8 -->
      <g transform="translate(25.815625 125.643612) scale(0.14 -0.14)">
       <use xlink:href="#DejaVuSans-30"/>
       <use xlink:href="#DejaVuSans-2e" x="63.623047"/>
       <use xlink:href="#DejaVuSans-38" x="95.410156"/>
      </g>
     </g>
    </g>
    <g id="ytick_6">
     <g id="line2d_23">
      <path d="M 55.08 55.101176 
L 387.72 55.101176 
" clip-path="url(#p780cf65982)" style="fill: none; stroke: #b0b0b0; stroke-width: 0.8; stroke-linecap: square"/>
     </g>
     <g id="line2d_24">
      <g>
       <use xlink:href="#m2d899a776d" x="55.08" y="55.101176" style="stroke: #000000; stroke-width: 0.8"/>
      </g>
     </g>
     <g id="text_13">
      <!-- 1.0 -->
      <g transform="translate(25.815625 60.420083) scale(0.14 -0.14)">
       <use xlink:href="#DejaVuSans-31"/>
       <use xlink:href="#DejaVuSans-2e" x="63.623047"/>
       <use xlink:href="#DejaVuSans-30" x="95.410156"/>
      </g>
     </g>
    </g>
    <g id="text_14">
     <!-- Precision -->
     <g transform="translate(18.904062 249.389844) rotate(-90) scale(0.14 -0.14)">
      <defs>
       <path id="DejaVuSans-50" d="M 1259 4147 
L 1259 2394 
L 2053 2394 
Q 2494 2394 2734 2622 
Q 2975 2850 2975 3272 
Q 2975 3691 2734 3919 
Q 2494 4147 2053 4147 
L 1259 4147 
z
M 628 4666 
L 2053 4666 
Q 2838 4666 3239 4311 
Q 3641 3956 3641 3272 
Q 3641 2581 3239 2228 
Q 2838 1875 2053 1875 
L 1259 1875 
L 1259 0 
L 628 0 
L 628 4666 
z
" transform="scale(0.015625)"/>
       <path id="DejaVuSans-72" d="M 2631 2963 
Q 2534 3019 2420 3045 
Q 2306 3072 2169 3072 
Q 1681 3072 1420 2755 
Q 1159 2438 1159 1844 
L 1159 0 
L 581 0 
L 581 3500 
L 1159 3500 
L 1159 2956 
Q 1341 3275 1631 3429 
Q 1922 3584 2338 3584 
Q 2397 3584 2469 3576 
Q 2541 3569 2628 3553 
L 2631 2963 
z
" transform="scale(0.015625)"/>
       <path id="DejaVuSans-69" d="M 603 3500 
L 1178 3500 
L 1178 0 
L 603 0 
L 603 3500 
z
M 603 4863 
L 1178 4863 
L 1178 4134 
L 603 4134 
L 603 4863 
z
" transform="scale(0.015625)"/>
       <path id="DejaVuSans-73" d="M 2834 3397 
L 2834 2853 
Q 2591 2978 2328 3040 
Q 2066 3103 1784 3103 
Q 1356 3103 1142 2972 
Q 928 2841 928 2578 
Q 928 2378 1081 2264 
Q 1234 2150 1697 2047 
L 1894 2003 
Q 2506 1872 2764 1633 
Q 3022 1394 3022 966 
Q 3022 478 2636 193 
Q 2250 -91 1575 -91 
Q 1294 -91 989 -36 
Q 684 19 347 128 
L 347 722 
Q 666 556 975 473 
Q 1284 391 1588 391 
Q 1994 391 2212 530 
Q 2431 669 2431 922 
Q 2431 1156 2273 1281 
Q 2116 1406 1581 1522 
L 1381 1569 
Q 847 1681 609 1914 
Q 372 2147 372 2553 
Q 372 3047 722 3315 
Q 1072 3584 1716 3584 
Q 2034 3584 2315 3537 
Q 2597 3491 2834 3397 
z
" transform="scale(0.015625)"/>
       <path id="DejaVuSans-6f" d="M 1959 3097 
Q 1497 3097 1228 2736 
Q 959 2375 959 1747 
Q 959 1119 1226 758 
Q 1494 397 1959 397 
Q 2419 397 2687 759 
Q 2956 1122 2956 1747 
Q 2956 2369 2687 2733 
Q 2419 3097 1959 3097 
z
M 1959 3584 
Q 2709 3584 3137 3096 
Q 3566 2609 3566 1747 
Q 3566 888 3137 398 
Q 2709 -91 1959 -91 
Q 1206 -91 779 398 
Q 353 888 353 1747 
Q 353 2609 779 3096 
Q 1206 3584 1959 3584 
z
" transform="scale(0.015625)"/>
       <path id="DejaVuSans-6e" d="M 3513 2113 
L 3513 0 
L 2938 0 
L 2938 2094 
Q 2938 2591 2744 2837 
Q 2550 3084 2163 3084 
Q 1697 3084 1428 2787 
Q 1159 2491 1159 1978 
L 1159 0 
L 581 0 
L 581 3500 
L 1159 3500 
L 1159 2956 
Q 1366 3272 1645 3428 
Q 1925 3584 2291 3584 
Q 2894 3584 3203 3211 
Q 3513 2838 3513 2113 
z
" transform="scale(0.015625)"/>
      </defs>
      <use xlink:href="#DejaVuSans-50"/>
      <use xlink:href="#DejaVuSans-72" x="58.552734"/>
      <use xlink:href="#DejaVuSans-65" x="97.416016"/>
      <use xlink:href="#DejaVuSans-63" x="158.939453"/>
      <use xlink:href="#DejaVuSans-69" x="213.919922"/>
      <use xlink:href="#DejaVuSans-73" x="241.703125"/>
      <use xlink:href="#DejaVuSans-69" x="293.802734"/>
      <use xlink:href="#DejaVuSans-6f" x="321.585938"/>
      <use xlink:href="#DejaVuSans-6e" x="382.767578"/>
     </g>
    </g>
   </g>
   <g id="line2d_25">
    <path d="M 58.341176 55.101176 
L 61.635294 55.101176 
L 64.929412 55.101176 
L 68.223529 55.101176 
L 71.517647 55.101176 
L 74.811765 55.101176 
L 78.105882 55.101176 
L 81.4 55.101176 
L 84.694118 55.101176 
L 87.988235 55.101176 
L 91.282353 55.101176 
L 94.576471 55.101176 
L 97.870588 55.101176 
L 101.164706 55.101176 
L 104.458824 55.101176 
L 107.752941 55.101176 
L 111.047059 55.101176 
L 114.341176 55.101176 
L 117.635294 55.101176 
L 120.929412 55.101176 
L 124.223529 55.101176 
L 127.517647 55.101176 
L 130.811765 55.101176 
L 134.105882 55.101176 
L 137.4 55.101176 
L 140.694118 55.101176 
L 143.988235 55.101176 
L 147.282353 55.101176 
L 150.576471 55.101176 
L 153.870588 55.101176 
L 157.164706 55.101176 
L 160.458824 55.101176 
L 163.752941 55.101176 
L 167.047059 55.101176 
L 170.341176 55.101176 
L 173.635294 55.101176 
L 176.929412 55.101176 
L 180.223529 55.101176 
L 183.517647 55.101176 
L 186.811765 55.101176 
L 190.105882 55.101176 
L 193.4 55.101176 
L 196.694118 55.101176 
L 199.988235 55.101176 
L 203.282353 55.101176 
L 206.576471 55.101176 
L 209.870588 55.101176 
L 213.164706 55.101176 
L 216.458824 55.101176 
L 219.752941 55.101176 
L 223.047059 55.101176 
L 226.341176 55.101176 
L 229.635294 55.101176 
L 232.929412 55.101176 
L 236.223529 55.101176 
L 239.517647 55.101176 
L 242.811765 55.101176 
L 246.105882 55.101176 
L 249.4 55.101176 
L 252.694118 55.101176 
L 255.988235 55.101176 
L 259.282353 55.101176 
L 262.576471 55.101176 
L 265.870588 55.101176 
L 269.164706 55.101176 
L 272.458824 55.101176 
L 275.752941 55.101176 
L 279.047059 55.101176 
L 282.341176 55.101176 
L 285.635294 55.101176 
L 288.929412 55.101176 
L 292.223529 55.101176 
L 295.517647 55.101176 
L 298.811765 55.101176 
L 302.105882 55.101176 
L 305.4 55.101176 
L 308.694118 55.101176 
L 311.988235 55.101176 
L 315.282353 55.101176 
L 318.576471 55.101176 
L 321.870588 55.101176 
L 325.164706 55.101176 
L 328.458824 55.101176 
L 331.752941 55.101176 
L 335.047059 55.101176 
L 338.341176 55.101176 
L 341.635294 55.101176 
L 344.929412 55.101176 
L 348.223529 55.101176 
L 351.517647 55.101176 
L 354.811765 55.101176 
L 358.105882 55.101176 
L 361.4 55.101176 
L 364.694118 55.101176 
L 367.988235 55.101176 
L 371.282353 55.101176 
L 374.576471 55.101176 
L 377.870588 55.101176 
L 381.164706 55.101176 
L 384.458824 381.218824 
" clip-path="url(#p780cf65982)" style="fill: none; stroke: #ff6666; stroke-width: 8; stroke-linecap: square"/>
   </g>
   <g id="line2d_26">
    <path d="M 58.341176 55.101176 
L 61.635294 55.13445 
L 64.929412 55.234272 
L 68.223529 55.400642 
L 71.517647 55.633559 
L 74.811765 55.933024 
L 78.105882 56.299037 
L 81.4 56.731598 
L 84.694118 57.230707 
L 87.988235 57.796364 
L 91.282353 58.428568 
L 94.576471 59.12732 
L 97.870588 59.89262 
L 101.164706 60.724468 
L 104.458824 61.622864 
L 107.752941 62.587807 
L 111.047059 63.619299 
L 114.341176 64.717338 
L 117.635294 65.881925 
L 120.929412 67.11306 
L 124.223529 68.410743 
L 127.517647 69.774973 
L 130.811765 71.205752 
L 134.105882 72.703078 
L 137.4 74.266952 
L 140.694118 75.897374 
L 143.988235 77.594343 
L 147.282353 79.357861 
L 150.576471 81.187926 
L 153.870588 83.08454 
L 157.164706 85.047701 
L 160.458824 87.077409 
L 163.752941 89.173666 
L 167.047059 91.336471 
L 170.341176 93.565823 
L 173.635294 95.861723 
L 176.929412 98.224171 
L 180.223529 100.653167 
L 183.517647 103.148711 
L 186.811765 105.710802 
L 190.105882 108.339441 
L 193.4 111.034629 
L 196.694118 113.796364 
L 199.988235 116.624646 
L 203.282353 119.519477 
L 206.576471 122.480856 
L 209.870588 125.508782 
L 213.164706 128.603256 
L 216.458824 131.764278 
L 219.752941 134.991848 
L 223.047059 138.285966 
L 226.341176 141.646631 
L 229.635294 145.073844 
L 232.929412 148.567605 
L 236.223529 152.127914 
L 239.517647 155.754771 
L 242.811765 159.448176 
L 246.105882 163.208128 
L 249.4 167.034629 
L 252.694118 170.927677 
L 255.988235 174.887273 
L 259.282353 178.913417 
L 262.576471 183.006108 
L 265.870588 187.165348 
L 269.164706 191.391135 
L 272.458824 195.68347 
L 275.752941 200.042353 
L 279.047059 204.467784 
L 282.341176 208.959762 
L 285.635294 213.518289 
L 288.929412 218.143363 
L 292.223529 222.834985 
L 295.517647 227.593155 
L 298.811765 232.417873 
L 302.105882 237.309138 
L 305.4 242.266952 
L 308.694118 247.291313 
L 311.988235 252.382222 
L 315.282353 257.539679 
L 318.576471 262.763684 
L 321.870588 268.054236 
L 325.164706 273.411337 
L 328.458824 278.834985 
L 331.752941 284.325181 
L 335.047059 289.881925 
L 338.341176 295.505217 
L 341.635294 301.195056 
L 344.929412 306.951444 
L 348.223529 312.774379 
L 351.517647 318.663862 
L 354.811765 324.619893 
L 358.105882 330.642472 
L 361.4 336.731598 
L 364.694118 342.887273 
L 367.988235 349.109495 
L 371.282353 355.398265 
L 374.576471 361.753583 
L 377.870588 368.175449 
L 381.164706 374.663862 
L 384.458824 381.218824 
" clip-path="url(#p780cf65982)" style="fill: none; stroke: #66ff66; stroke-width: 8; stroke-linecap: square"/>
   </g>
   <g id="line2d_27">
    <path d="M 58.341176 381.218824 
L 61.635294 381.218824 
L 64.929412 381.218824 
L 68.223529 381.218824 
L 71.517647 381.218824 
L 74.811765 381.218824 
L 78.105882 381.218824 
L 81.4 381.218824 
L 84.694118 381.218824 
L 87.988235 381.218824 
L 91.282353 381.218824 
L 94.576471 381.218824 
L 97.870588 381.218824 
L 101.164706 381.218824 
L 104.458824 381.218824 
L 107.752941 381.218824 
L 111.047059 381.218824 
L 114.341176 381.218824 
L 117.635294 381.218824 
L 120.929412 381.218824 
L 124.223529 381.218824 
L 127.517647 381.218824 
L 130.811765 381.218824 
L 134.105882 381.218824 
L 137.4 381.218824 
L 140.694118 381.218824 
L 143.988235 381.218824 
L 147.282353 381.218824 
L 150.576471 381.218824 
L 153.870588 381.218824 
L 157.164706 381.218824 
L 160.458824 381.218824 
L 163.752941 381.218824 
L 167.047059 381.218824 
L 170.341176 381.218824 
L 173.635294 381.218824 
L 176.929412 381.218824 
L 180.223529 381.218824 
L 183.517647 381.218824 
L 186.811765 381.218824 
L 190.105882 381.218824 
L 193.4 381.218824 
L 196.694118 381.218824 
L 199.988235 381.218824 
L 203.282353 381.218824 
L 206.576471 381.218824 
L 209.870588 381.218824 
L 213.164706 381.218824 
L 216.458824 381.218824 
L 219.752941 381.218824 
L 223.047059 381.218824 
L 226.341176 381.218824 
L 229.635294 381.218824 
L 232.929412 381.218824 
L 236.223529 381.218824 
L 239.517647 381.218824 
L 242.811765 381.218824 
L 246.105882 381.218824 
L 249.4 381.218824 
L 252.694118 381.218824 
L 255.988235 381.218824 
L 259.282353 381.218824 
L 262.576471 381.218824 
L 265.870588 381.218824 
L 269.164706 381.218824 
L 272.458824 381.218824 
L 275.752941 381.218824 
L 279.047059 381.218824 
L 282.341176 381.218824 
L 285.635294 381.218824 
L 288.929412 381.218824 
L 292.223529 381.218824 
L 295.517647 381.218824 
L 298.811765 381.218824 
L 302.105882 381.218824 
L 305.4 381.218824 
L 308.694118 381.218824 
L 311.988235 381.218824 
L 315.282353 381.218824 
L 318.576471 381.218824 
L 321.870588 381.218824 
L 325.164706 381.218824 
L 328.458824 381.218824 
L 331.752941 381.218824 
L 335.047059 381.218824 
L 338.341176 381.218824 
L 341.635294 381.218824 
L 344.929412 381.218824 
L 348.223529 381.218824 
L 351.517647 381.218824 
L 354.811765 381.218824 
L 358.105882 381.218824 
L 361.4 381.218824 
L 364.694118 381.218824 
L 367.988235 381.218824 
L 371.282353 381.218824 
L 374.576471 381.218824 
L 377.870588 381.218824 
L 381.164706 381.218824 
L 384.458824 381.218824 
" clip-path="url(#p780cf65982)" style="fill: none; stroke: #6666ff; stroke-width: 8; stroke-linecap: square"/>
   </g>
   <g id="patch_3">
    <path d="M 55.08 384.48 
L 55.08 51.84 
" style="fill: none; stroke: #000000; stroke-width: 0.8; stroke-linejoin: miter; stroke-linecap: square"/>
   </g>
   <g id="patch_4">
    <path d="M 387.72 384.48 
L 387.72 51.84 
" style="fill: none; stroke: #000000; stroke-width: 0.8; stroke-linejoin: miter; stroke-linecap: square"/>
   </g>
   <g id="patch_5">
    <path d="M 55.08 384.48 
L 387.72 384.48 
" style="fill: none; stroke: #000000; stroke-width: 0.8; stroke-linejoin: miter; stroke-linecap: square"/>
   </g>
   <g id="patch_6">
    <path d="M 55.08 51.84 
L 387.72 51.84 
" style="fill: none; stroke: #000000; stroke-width: 0.8; stroke-linejoin: miter; stroke-linecap: square"/>
   </g>
   <g id="legend_1">
    <g id="patch_7">
     <path d="M 233.617188 124.688125 
L 377.92 124.688125 
Q 380.72 124.688125 380.72 121.888125 
L 380.72 61.64 
Q 380.72 58.84 377.92 58.84 
L 233.617188 58.84 
Q 230.817187 58.84 230.817187 61.64 
L 230.817187 121.888125 
Q 230.817187 124.688125 233.617188 124.688125 
z
" style="fill: #ffffff; opacity: 0.8; stroke: #cccccc; stroke-linejoin: miter"/>
    </g>
    <g id="line2d_28">
     <path d="M 236.417187 70.177812 
L 250.417187 70.177812 
L 264.417187 70.177812 
" style="fill: none; stroke: #ff6666; stroke-width: 8; stroke-linecap: square"/>
    </g>
    <g id="text_15">
     <!-- Perfect Model -->
     <g transform="translate(275.617188 75.077812) scale(0.14 -0.14)">
      <defs>
       <path id="DejaVuSans-66" d="M 2375 4863 
L 2375 4384 
L 1825 4384 
Q 1516 4384 1395 4259 
Q 1275 4134 1275 3809 
L 1275 3500 
L 2222 3500 
L 2222 3053 
L 1275 3053 
L 1275 0 
L 697 0 
L 697 3053 
L 147 3053 
L 147 3500 
L 697 3500 
L 697 3744 
Q 697 4328 969 4595 
Q 1241 4863 1831 4863 
L 2375 4863 
z
" transform="scale(0.015625)"/>
       <path id="DejaVuSans-74" d="M 1172 4494 
L 1172 3500 
L 2356 3500 
L 2356 3053 
L 1172 3053 
L 1172 1153 
Q 1172 725 1289 603 
Q 1406 481 1766 481 
L 2356 481 
L 2356 0 
L 1766 0 
Q 1100 0 847 248 
Q 594 497 594 1153 
L 594 3053 
L 172 3053 
L 172 3500 
L 594 3500 
L 594 4494 
L 1172 4494 
z
" transform="scale(0.015625)"/>
       <path id="DejaVuSans-20" transform="scale(0.015625)"/>
       <path id="DejaVuSans-4d" d="M 628 4666 
L 1569 4666 
L 2759 1491 
L 3956 4666 
L 4897 4666 
L 4897 0 
L 4281 0 
L 4281 4097 
L 3078 897 
L 2444 897 
L 1241 4097 
L 1241 0 
L 628 0 
L 628 4666 
z
" transform="scale(0.015625)"/>
       <path id="DejaVuSans-64" d="M 2906 2969 
L 2906 4863 
L 3481 4863 
L 3481 0 
L 2906 0 
L 2906 525 
Q 2725 213 2448 61 
Q 2172 -91 1784 -91 
Q 1150 -91 751 415 
Q 353 922 353 1747 
Q 353 2572 751 3078 
Q 1150 3584 1784 3584 
Q 2172 3584 2448 3432 
Q 2725 3281 2906 2969 
z
M 947 1747 
Q 947 1113 1208 752 
Q 1469 391 1925 391 
Q 2381 391 2643 752 
Q 2906 1113 2906 1747 
Q 2906 2381 2643 2742 
Q 2381 3103 1925 3103 
Q 1469 3103 1208 2742 
Q 947 2381 947 1747 
z
" transform="scale(0.015625)"/>
      </defs>
      <use xlink:href="#DejaVuSans-50"/>
      <use xlink:href="#DejaVuSans-65" x="56.677734"/>
      <use xlink:href="#DejaVuSans-72" x="118.201172"/>
      <use xlink:href="#DejaVuSans-66" x="159.314453"/>
      <use xlink:href="#DejaVuSans-65" x="194.519531"/>
      <use xlink:href="#DejaVuSans-63" x="256.042969"/>
      <use xlink:href="#DejaVuSans-74" x="311.023438"/>
      <use xlink:href="#DejaVuSans-20" x="350.232422"/>
      <use xlink:href="#DejaVuSans-4d" x="382.019531"/>
      <use xlink:href="#DejaVuSans-6f" x="468.298828"/>
      <use xlink:href="#DejaVuSans-64" x="529.480469"/>
      <use xlink:href="#DejaVuSans-65" x="592.957031"/>
      <use xlink:href="#DejaVuSans-6c" x="654.480469"/>
     </g>
    </g>
    <g id="line2d_29">
     <path d="M 236.417187 90.727187 
L 250.417187 90.727187 
L 264.417187 90.727187 
" style="fill: none; stroke: #66ff66; stroke-width: 8; stroke-linecap: square"/>
    </g>
    <g id="text_16">
     <!-- Good Model -->
     <g transform="translate(275.617188 95.627187) scale(0.14 -0.14)">
      <defs>
       <path id="DejaVuSans-47" d="M 3809 666 
L 3809 1919 
L 2778 1919 
L 2778 2438 
L 4434 2438 
L 4434 434 
Q 4069 175 3628 42 
Q 3188 -91 2688 -91 
Q 1594 -91 976 548 
Q 359 1188 359 2328 
Q 359 3472 976 4111 
Q 1594 4750 2688 4750 
Q 3144 4750 3555 4637 
Q 3966 4525 4313 4306 
L 4313 3634 
Q 3963 3931 3569 4081 
Q 3175 4231 2741 4231 
Q 1884 4231 1454 3753 
Q 1025 3275 1025 2328 
Q 1025 1384 1454 906 
Q 1884 428 2741 428 
Q 3075 428 3337 486 
Q 3600 544 3809 666 
z
" transform="scale(0.015625)"/>
      </defs>
      <use xlink:href="#DejaVuSans-47"/>
      <use xlink:href="#DejaVuSans-6f" x="77.490234"/>
      <use xlink:href="#DejaVuSans-6f" x="138.671875"/>
      <use xlink:href="#DejaVuSans-64" x="199.853516"/>
      <use xlink:href="#DejaVuSans-20" x="263.330078"/>
      <use xlink:href="#DejaVuSans-4d" x="295.117188"/>
      <use xlink:href="#DejaVuSans-6f" x="381.396484"/>
      <use xlink:href="#DejaVuSans-64" x="442.578125"/>
      <use xlink:href="#DejaVuSans-65" x="506.054688"/>
      <use xlink:href="#DejaVuSans-6c" x="567.578125"/>
     </g>
    </g>
    <g id="line2d_30">
     <path d="M 236.417187 111.276562 
L 250.417187 111.276562 
L 264.417187 111.276562 
" style="fill: none; stroke: #6666ff; stroke-width: 8; stroke-linecap: square"/>
    </g>
    <g id="text_17">
     <!-- No-Skill Model -->
     <g transform="translate(275.617188 116.176562) scale(0.14 -0.14)">
      <defs>
       <path id="DejaVuSans-4e" d="M 628 4666 
L 1478 4666 
L 3547 763 
L 3547 4666 
L 4159 4666 
L 4159 0 
L 3309 0 
L 1241 3903 
L 1241 0 
L 628 0 
L 628 4666 
z
" transform="scale(0.015625)"/>
       <path id="DejaVuSans-2d" d="M 313 2009 
L 1997 2009 
L 1997 1497 
L 313 1497 
L 313 2009 
z
" transform="scale(0.015625)"/>
       <path id="DejaVuSans-53" d="M 3425 4513 
L 3425 3897 
Q 3066 4069 2747 4153 
Q 2428 4238 2131 4238 
Q 1616 4238 1336 4038 
Q 1056 3838 1056 3469 
Q 1056 3159 1242 3001 
Q 1428 2844 1947 2747 
L 2328 2669 
Q 3034 2534 3370 2195 
Q 3706 1856 3706 1288 
Q 3706 609 3251 259 
Q 2797 -91 1919 -91 
Q 1588 -91 1214 -16 
Q 841 59 441 206 
L 441 856 
Q 825 641 1194 531 
Q 1563 422 1919 422 
Q 2459 422 2753 634 
Q 3047 847 3047 1241 
Q 3047 1584 2836 1778 
Q 2625 1972 2144 2069 
L 1759 2144 
Q 1053 2284 737 2584 
Q 422 2884 422 3419 
Q 422 4038 858 4394 
Q 1294 4750 2059 4750 
Q 2388 4750 2728 4690 
Q 3069 4631 3425 4513 
z
" transform="scale(0.015625)"/>
       <path id="DejaVuSans-6b" d="M 581 4863 
L 1159 4863 
L 1159 1991 
L 2875 3500 
L 3609 3500 
L 1753 1863 
L 3688 0 
L 2938 0 
L 1159 1709 
L 1159 0 
L 581 0 
L 581 4863 
z
" transform="scale(0.015625)"/>
      </defs>
      <use xlink:href="#DejaVuSans-4e"/>
      <use xlink:href="#DejaVuSans-6f" x="74.804688"/>
      <use xlink:href="#DejaVuSans-2d" x="137.861328"/>
      <use xlink:href="#DejaVuSans-53" x="173.945312"/>
      <use xlink:href="#DejaVuSans-6b" x="237.421875"/>
      <use xlink:href="#DejaVuSans-69" x="295.332031"/>
      <use xlink:href="#DejaVuSans-6c" x="323.115234"/>
      <use xlink:href="#DejaVuSans-6c" x="350.898438"/>
      <use xlink:href="#DejaVuSans-20" x="378.681641"/>
      <use xlink:href="#DejaVuSans-4d" x="410.46875"/>
      <use xlink:href="#DejaVuSans-6f" x="496.748047"/>
      <use xlink:href="#DejaVuSans-64" x="557.929688"/>
      <use xlink:href="#DejaVuSans-65" x="621.40625"/>
      <use xlink:href="#DejaVuSans-6c" x="682.929688"/>
     </g>
    </g>
   </g>
  </g>
 </g>
 <defs>
  <clipPath id="p780cf65982">
   <rect x="55.08" y="51.84" width="332.64" height="332.64"/>
  </clipPath>
 </defs>
</svg>
