<?xml version="1.0" encoding="utf-8" standalone="no"?>
<!DOCTYPE svg PUBLIC "-//W3C//DTD SVG 1.1//EN"
  "http://www.w3.org/Graphics/SVG/1.1/DTD/svg11.dtd">
<svg xmlns:xlink="http://www.w3.org/1999/xlink" width="432pt" height="432pt" viewBox="0 0 432 432" xmlns="http://www.w3.org/2000/svg" version="1.1">
 <metadata>
  <rdf:RDF xmlns:dc="http://purl.org/dc/elements/1.1/" xmlns:cc="http://creativecommons.org/ns#" xmlns:rdf="http://www.w3.org/1999/02/22-rdf-syntax-ns#">
   <cc:Work>
    <dc:type rdf:resource="http://purl.org/dc/dcmitype/StillImage"/>
    <dc:date>2023-10-31T13:45:52.805850</dc:date>
    <dc:format>image/svg+xml</dc:format>
    <dc:creator>
     <cc:Agent>
      <dc:title>Matplotlib v3.5.3, https://matplotlib.org/</dc:title>
     </cc:Agent>
    </dc:creator>
   </cc:Work>
  </rdf:RDF>
 </metadata>
 <defs>
  <style type="text/css">*{stroke-linejoin: round; stroke-linecap: butt}</style>
 </defs>
 <g id="figure_1">
  <g id="patch_1">
   <path d="M 0 432 
L 432 432 
L 432 0 
L 0 0 
z
" style="fill: #ffffff"/>
  </g>
  <g id="axes_1">
   <g id="patch_2">
    <path d="M 55.08 384.48 
L 387.72 384.48 
L 387.72 51.84 
L 55.08 51.84 
z
" style="fill: #ffffff"/>
   </g>
   <g id="matplotlib.axis_1">
    <g id="xtick_1">
     <g id="line2d_1">
      <path d="M 58.341176 384.48 
L 58.341176 51.84 
" clip-path="url(#pd28344dfbe)" style="fill: none; stroke: #b0b0b0; stroke-width: 0.8; stroke-linecap: square"/>
     </g>
     <g id="line2d_2">
      <defs>
       <path id="me3e076162e" d="M 0 0 
L 0 3.5 
" style="stroke: #000000; stroke-width: 0.8"/>
      </defs>
      <g>
       <use xlink:href="#me3e076162e" x="58.341176" y="384.48" style="stroke: #000000; stroke-width: 0.8"/>
      </g>
     </g>
     <g id="text_1">
      <!-- 0.0 -->
      <g transform="translate(47.208989 402.117813)scale(0.14 -0.14)">
       <defs>
        <path id="DejaVuSans-30" d="M 2034 4250 
Q 1547 4250 1301 3770 
Q 1056 3291 1056 2328 
Q 1056 1369 1301 889 
Q 1547 409 2034 409 
Q 2525 409 2770 889 
Q 3016 1369 3016 2328 
Q 3016 3291 2770 3770 
Q 2525 4250 2034 4250 
z
M 2034 4750 
Q 2819 4750 3233 4129 
Q 3647 3509 3647 2328 
Q 3647 1150 3233 529 
Q 2819 -91 2034 -91 
Q 1250 -91 836 529 
Q 422 1150 422 2328 
Q 422 3509 836 4129 
Q 1250 4750 2034 4750 
z
" transform="scale(0.015625)"/>
        <path id="DejaVuSans-2e" d="M 684 794 
L 1344 794 
L 1344 0 
L 684 0 
L 684 794 
z
" transform="scale(0.015625)"/>
       </defs>
       <use xlink:href="#DejaVuSans-30"/>
       <use xlink:href="#DejaVuSans-2e" x="63.623047"/>
       <use xlink:href="#DejaVuSans-30" x="95.410156"/>
      </g>
     </g>
    </g>
    <g id="xtick_2">
     <g id="line2d_3">
      <path d="M 123.564706 384.48 
L 123.564706 51.84 
" clip-path="url(#pd28344dfbe)" style="fill: none; stroke: #b0b0b0; stroke-width: 0.8; stroke-linecap: square"/>
     </g>
     <g id="line2d_4">
      <g>
       <use xlink:href="#me3e076162e" x="123.564706" y="384.48" style="stroke: #000000; stroke-width: 0.8"/>
      </g>
     </g>
     <g id="text_2">
      <!-- 0.2 -->
      <g transform="translate(112.432518 402.117813)scale(0.14 -0.14)">
       <defs>
        <path id="DejaVuSans-32" d="M 1228 531 
L 3431 531 
L 3431 0 
L 469 0 
L 469 531 
Q 828 903 1448 1529 
Q 2069 2156 2228 2338 
Q 2531 2678 2651 2914 
Q 2772 3150 2772 3378 
Q 2772 3750 2511 3984 
Q 2250 4219 1831 4219 
Q 1534 4219 1204 4116 
Q 875 4013 500 3803 
L 500 4441 
Q 881 4594 1212 4672 
Q 1544 4750 1819 4750 
Q 2544 4750 2975 4387 
Q 3406 4025 3406 3419 
Q 3406 3131 3298 2873 
Q 3191 2616 2906 2266 
Q 2828 2175 2409 1742 
Q 1991 1309 1228 531 
z
" transform="scale(0.015625)"/>
       </defs>
       <use xlink:href="#DejaVuSans-30"/>
       <use xlink:href="#DejaVuSans-2e" x="63.623047"/>
       <use xlink:href="#DejaVuSans-32" x="95.410156"/>
      </g>
     </g>
    </g>
    <g id="xtick_3">
     <g id="line2d_5">
      <path d="M 188.788235 384.48 
L 188.788235 51.84 
" clip-path="url(#pd28344dfbe)" style="fill: none; stroke: #b0b0b0; stroke-width: 0.8; stroke-linecap: square"/>
     </g>
     <g id="line2d_6">
      <g>
       <use xlink:href="#me3e076162e" x="188.788235" y="384.48" style="stroke: #000000; stroke-width: 0.8"/>
      </g>
     </g>
     <g id="text_3">
      <!-- 0.4 -->
      <g transform="translate(177.656048 402.117813)scale(0.14 -0.14)">
       <defs>
        <path id="DejaVuSans-34" d="M 2419 4116 
L 825 1625 
L 2419 1625 
L 2419 4116 
z
M 2253 4666 
L 3047 4666 
L 3047 1625 
L 3713 1625 
L 3713 1100 
L 3047 1100 
L 3047 0 
L 2419 0 
L 2419 1100 
L 313 1100 
L 313 1709 
L 2253 4666 
z
" transform="scale(0.015625)"/>
       </defs>
       <use xlink:href="#DejaVuSans-30"/>
       <use xlink:href="#DejaVuSans-2e" x="63.623047"/>
       <use xlink:href="#DejaVuSans-34" x="95.410156"/>
      </g>
     </g>
    </g>
    <g id="xtick_4">
     <g id="line2d_7">
      <path d="M 254.011765 384.48 
L 254.011765 51.84 
" clip-path="url(#pd28344dfbe)" style="fill: none; stroke: #b0b0b0; stroke-width: 0.8; stroke-linecap: square"/>
     </g>
     <g id="line2d_8">
      <g>
       <use xlink:href="#me3e076162e" x="254.011765" y="384.48" style="stroke: #000000; stroke-width: 0.8"/>
      </g>
     </g>
     <g id="text_4">
      <!-- 0.6 -->
      <g transform="translate(242.879577 402.117813)scale(0.14 -0.14)">
       <defs>
        <path id="DejaVuSans-36" d="M 2113 2584 
Q 1688 2584 1439 2293 
Q 1191 2003 1191 1497 
Q 1191 994 1439 701 
Q 1688 409 2113 409 
Q 2538 409 2786 701 
Q 3034 994 3034 1497 
Q 3034 2003 2786 2293 
Q 2538 2584 2113 2584 
z
M 3366 4563 
L 3366 3988 
Q 3128 4100 2886 4159 
Q 2644 4219 2406 4219 
Q 1781 4219 1451 3797 
Q 1122 3375 1075 2522 
Q 1259 2794 1537 2939 
Q 1816 3084 2150 3084 
Q 2853 3084 3261 2657 
Q 3669 2231 3669 1497 
Q 3669 778 3244 343 
Q 2819 -91 2113 -91 
Q 1303 -91 875 529 
Q 447 1150 447 2328 
Q 447 3434 972 4092 
Q 1497 4750 2381 4750 
Q 2619 4750 2861 4703 
Q 3103 4656 3366 4563 
z
" transform="scale(0.015625)"/>
       </defs>
       <use xlink:href="#DejaVuSans-30"/>
       <use xlink:href="#DejaVuSans-2e" x="63.623047"/>
       <use xlink:href="#DejaVuSans-36" x="95.410156"/>
      </g>
     </g>
    </g>
    <g id="xtick_5">
     <g id="line2d_9">
      <path d="M 319.235294 384.48 
L 319.235294 51.84 
" clip-path="url(#pd28344dfbe)" style="fill: none; stroke: #b0b0b0; stroke-width: 0.8; stroke-linecap: square"/>
     </g>
     <g id="line2d_10">
      <g>
       <use xlink:href="#me3e076162e" x="319.235294" y="384.48" style="stroke: #000000; stroke-width: 0.8"/>
      </g>
     </g>
     <g id="text_5">
      <!-- 0.8 -->
      <g transform="translate(308.103107 402.117813)scale(0.14 -0.14)">
       <defs>
        <path id="DejaVuSans-38" d="M 2034 2216 
Q 1584 2216 1326 1975 
Q 1069 1734 1069 1313 
Q 1069 891 1326 650 
Q 1584 409 2034 409 
Q 2484 409 2743 651 
Q 3003 894 3003 1313 
Q 3003 1734 2745 1975 
Q 2488 2216 2034 2216 
z
M 1403 2484 
Q 997 2584 770 2862 
Q 544 3141 544 3541 
Q 544 4100 942 4425 
Q 1341 4750 2034 4750 
Q 2731 4750 3128 4425 
Q 3525 4100 3525 3541 
Q 3525 3141 3298 2862 
Q 3072 2584 2669 2484 
Q 3125 2378 3379 2068 
Q 3634 1759 3634 1313 
Q 3634 634 3220 271 
Q 2806 -91 2034 -91 
Q 1263 -91 848 271 
Q 434 634 434 1313 
Q 434 1759 690 2068 
Q 947 2378 1403 2484 
z
M 1172 3481 
Q 1172 3119 1398 2916 
Q 1625 2713 2034 2713 
Q 2441 2713 2670 2916 
Q 2900 3119 2900 3481 
Q 2900 3844 2670 4047 
Q 2441 4250 2034 4250 
Q 1625 4250 1398 4047 
Q 1172 3844 1172 3481 
z
" transform="scale(0.015625)"/>
       </defs>
       <use xlink:href="#DejaVuSans-30"/>
       <use xlink:href="#DejaVuSans-2e" x="63.623047"/>
       <use xlink:href="#DejaVuSans-38" x="95.410156"/>
      </g>
     </g>
    </g>
    <g id="xtick_6">
     <g id="line2d_11">
      <path d="M 384.458824 384.48 
L 384.458824 51.84 
" clip-path="url(#pd28344dfbe)" style="fill: none; stroke: #b0b0b0; stroke-width: 0.8; stroke-linecap: square"/>
     </g>
     <g id="line2d_12">
      <g>
       <use xlink:href="#me3e076162e" x="384.458824" y="384.48" style="stroke: #000000; stroke-width: 0.8"/>
      </g>
     </g>
     <g id="text_6">
      <!-- 1.0 -->
      <g transform="translate(373.326636 402.117813)scale(0.14 -0.14)">
       <defs>
        <path id="DejaVuSans-31" d="M 794 531 
L 1825 531 
L 1825 4091 
L 703 3866 
L 703 4441 
L 1819 4666 
L 2450 4666 
L 2450 531 
L 3481 531 
L 3481 0 
L 794 0 
L 794 531 
z
" transform="scale(0.015625)"/>
       </defs>
       <use xlink:href="#DejaVuSans-31"/>
       <use xlink:href="#DejaVuSans-2e" x="63.623047"/>
       <use xlink:href="#DejaVuSans-30" x="95.410156"/>
      </g>
     </g>
    </g>
    <g id="text_7">
     <!-- Recall -->
     <g transform="translate(200.515937 419.667188)scale(0.14 -0.14)">
      <defs>
       <path id="DejaVuSans-52" d="M 2841 2188 
Q 3044 2119 3236 1894 
Q 3428 1669 3622 1275 
L 4263 0 
L 3584 0 
L 2988 1197 
Q 2756 1666 2539 1819 
Q 2322 1972 1947 1972 
L 1259 1972 
L 1259 0 
L 628 0 
L 628 4666 
L 2053 4666 
Q 2853 4666 3247 4331 
Q 3641 3997 3641 3322 
Q 3641 2881 3436 2590 
Q 3231 2300 2841 2188 
z
M 1259 4147 
L 1259 2491 
L 2053 2491 
Q 2509 2491 2742 2702 
Q 2975 2913 2975 3322 
Q 2975 3731 2742 3939 
Q 2509 4147 2053 4147 
L 1259 4147 
z
" transform="scale(0.015625)"/>
       <path id="DejaVuSans-65" d="M 3597 1894 
L 3597 1613 
L 953 1613 
Q 991 1019 1311 708 
Q 1631 397 2203 397 
Q 2534 397 2845 478 
Q 3156 559 3463 722 
L 3463 178 
Q 3153 47 2828 -22 
Q 2503 -91 2169 -91 
Q 1331 -91 842 396 
Q 353 884 353 1716 
Q 353 2575 817 3079 
Q 1281 3584 2069 3584 
Q 2775 3584 3186 3129 
Q 3597 2675 3597 1894 
z
M 3022 2063 
Q 3016 2534 2758 2815 
Q 2500 3097 2075 3097 
Q 1594 3097 1305 2825 
Q 1016 2553 972 2059 
L 3022 2063 
z
" transform="scale(0.015625)"/>
       <path id="DejaVuSans-63" d="M 3122 3366 
L 3122 2828 
Q 2878 2963 2633 3030 
Q 2388 3097 2138 3097 
Q 1578 3097 1268 2742 
Q 959 2388 959 1747 
Q 959 1106 1268 751 
Q 1578 397 2138 397 
Q 2388 397 2633 464 
Q 2878 531 3122 666 
L 3122 134 
Q 2881 22 2623 -34 
Q 2366 -91 2075 -91 
Q 1284 -91 818 406 
Q 353 903 353 1747 
Q 353 2603 823 3093 
Q 1294 3584 2113 3584 
Q 2378 3584 2631 3529 
Q 2884 3475 3122 3366 
z
" transform="scale(0.015625)"/>
       <path id="DejaVuSans-61" d="M 2194 1759 
Q 1497 1759 1228 1600 
Q 959 1441 959 1056 
Q 959 750 1161 570 
Q 1363 391 1709 391 
Q 2188 391 2477 730 
Q 2766 1069 2766 1631 
L 2766 1759 
L 2194 1759 
z
M 3341 1997 
L 3341 0 
L 2766 0 
L 2766 531 
Q 2569 213 2275 61 
Q 1981 -91 1556 -91 
Q 1019 -91 701 211 
Q 384 513 384 1019 
Q 384 1609 779 1909 
Q 1175 2209 1959 2209 
L 2766 2209 
L 2766 2266 
Q 2766 2663 2505 2880 
Q 2244 3097 1772 3097 
Q 1472 3097 1187 3025 
Q 903 2953 641 2809 
L 641 3341 
Q 956 3463 1253 3523 
Q 1550 3584 1831 3584 
Q 2591 3584 2966 3190 
Q 3341 2797 3341 1997 
z
" transform="scale(0.015625)"/>
       <path id="DejaVuSans-6c" d="M 603 4863 
L 1178 4863 
L 1178 0 
L 603 0 
L 603 4863 
z
" transform="scale(0.015625)"/>
      </defs>
      <use xlink:href="#DejaVuSans-52"/>
      <use xlink:href="#DejaVuSans-65" x="64.982422"/>
      <use xlink:href="#DejaVuSans-63" x="126.505859"/>
      <use xlink:href="#DejaVuSans-61" x="181.486328"/>
      <use xlink:href="#DejaVuSans-6c" x="242.765625"/>
      <use xlink:href="#DejaVuSans-6c" x="270.548828"/>
     </g>
    </g>
   </g>
   <g id="matplotlib.axis_2">
    <g id="ytick_1">
     <g id="line2d_13">
      <path d="M 55.08 381.218824 
L 387.72 381.218824 
" clip-path="url(#pd28344dfbe)" style="fill: none; stroke: #b0b0b0; stroke-width: 0.8; stroke-linecap: square"/>
     </g>
     <g id="line2d_14">
      <defs>
       <path id="m7b05cca807" d="M 0 0 
L -3.5 0 
" style="stroke: #000000; stroke-width: 0.8"/>
      </defs>
      <g>
       <use xlink:href="#m7b05cca807" x="55.08" y="381.218824" style="stroke: #000000; stroke-width: 0.8"/>
      </g>
     </g>
     <g id="text_8">
      <!-- 0.0 -->
      <g transform="translate(25.815625 386.53773)scale(0.14 -0.14)">
       <use xlink:href="#DejaVuSans-30"/>
       <use xlink:href="#DejaVuSans-2e" x="63.623047"/>
       <use xlink:href="#DejaVuSans-30" x="95.410156"/>
      </g>
     </g>
    </g>
    <g id="ytick_2">
     <g id="line2d_15">
      <path d="M 55.08 315.995294 
L 387.72 315.995294 
" clip-path="url(#pd28344dfbe)" style="fill: none; stroke: #b0b0b0; stroke-width: 0.8; stroke-linecap: square"/>
     </g>
     <g id="line2d_16">
      <g>
       <use xlink:href="#m7b05cca807" x="55.08" y="315.995294" style="stroke: #000000; stroke-width: 0.8"/>
      </g>
     </g>
     <g id="text_9">
      <!-- 0.2 -->
      <g transform="translate(25.815625 321.3142)scale(0.14 -0.14)">
       <use xlink:href="#DejaVuSans-30"/>
       <use xlink:href="#DejaVuSans-2e" x="63.623047"/>
       <use xlink:href="#DejaVuSans-32" x="95.410156"/>
      </g>
     </g>
    </g>
    <g id="ytick_3">
     <g id="line2d_17">
      <path d="M 55.08 250.771765 
L 387.72 250.771765 
" clip-path="url(#pd28344dfbe)" style="fill: none; stroke: #b0b0b0; stroke-width: 0.8; stroke-linecap: square"/>
     </g>
     <g id="line2d_18">
      <g>
       <use xlink:href="#m7b05cca807" x="55.08" y="250.771765" style="stroke: #000000; stroke-width: 0.8"/>
      </g>
     </g>
     <g id="text_10">
      <!-- 0.4 -->
      <g transform="translate(25.815625 256.090671)scale(0.14 -0.14)">
       <use xlink:href="#DejaVuSans-30"/>
       <use xlink:href="#DejaVuSans-2e" x="63.623047"/>
       <use xlink:href="#DejaVuSans-34" x="95.410156"/>
      </g>
     </g>
    </g>
    <g id="ytick_4">
     <g id="line2d_19">
      <path d="M 55.08 185.548235 
L 387.72 185.548235 
" clip-path="url(#pd28344dfbe)" style="fill: none; stroke: #b0b0b0; stroke-width: 0.8; stroke-linecap: square"/>
     </g>
     <g id="line2d_20">
      <g>
       <use xlink:href="#m7b05cca807" x="55.08" y="185.548235" style="stroke: #000000; stroke-width: 0.8"/>
      </g>
     </g>
     <g id="text_11">
      <!-- 0.6 -->
      <g transform="translate(25.815625 190.867142)scale(0.14 -0.14)">
       <use xlink:href="#DejaVuSans-30"/>
       <use xlink:href="#DejaVuSans-2e" x="63.623047"/>
       <use xlink:href="#DejaVuSans-36" x="95.410156"/>
      </g>
     </g>
    </g>
    <g id="ytick_5">
     <g id="line2d_21">
      <path d="M 55.08 120.324706 
L 387.72 120.324706 
" clip-path="url(#pd28344dfbe)" style="fill: none; stroke: #b0b0b0; stroke-width: 0.8; stroke-linecap: square"/>
     </g>
     <g id="line2d_22">
      <g>
       <use xlink:href="#m7b05cca807" x="55.08" y="120.324706" style="stroke: #000000; stroke-width: 0.8"/>
      </g>
     </g>
     <g id="text_12">
      <!-- 0.8 -->
      <g transform="translate(25.815625 125.643612)scale(0.14 -0.14)">
       <use xlink:href="#DejaVuSans-30"/>
       <use xlink:href="#DejaVuSans-2e" x="63.623047"/>
       <use xlink:href="#DejaVuSans-38" x="95.410156"/>
      </g>
     </g>
    </g>
    <g id="ytick_6">
     <g id="line2d_23">
      <path d="M 55.08 55.101176 
L 387.72 55.101176 
" clip-path="url(#pd28344dfbe)" style="fill: none; stroke: #b0b0b0; stroke-width: 0.8; stroke-linecap: square"/>
     </g>
     <g id="line2d_24">
      <g>
       <use xlink:href="#m7b05cca807" x="55.08" y="55.101176" style="stroke: #000000; stroke-width: 0.8"/>
      </g>
     </g>
     <g id="text_13">
      <!-- 1.0 -->
      <g transform="translate(25.815625 60.420083)scale(0.14 -0.14)">
       <use xlink:href="#DejaVuSans-31"/>
       <use xlink:href="#DejaVuSans-2e" x="63.623047"/>
       <use xlink:href="#DejaVuSans-30" x="95.410156"/>
      </g>
     </g>
    </g>
    <g id="text_14">
     <!-- Precision -->
     <g transform="translate(18.904062 249.389844)rotate(-90)scale(0.14 -0.14)">
      <defs>
       <path id="DejaVuSans-50" d="M 1259 4147 
L 1259 2394 
L 2053 2394 
Q 2494 2394 2734 2622 
Q 2975 2850 2975 3272 
Q 2975 3691 2734 3919 
Q 2494 4147 2053 4147 
L 1259 4147 
z
M 628 4666 
L 2053 4666 
Q 2838 4666 3239 4311 
Q 3641 3956 3641 3272 
Q 3641 2581 3239 2228 
Q 2838 1875 2053 1875 
L 1259 1875 
L 1259 0 
L 628 0 
L 628 4666 
z
" transform="scale(0.015625)"/>
       <path id="DejaVuSans-72" d="M 2631 2963 
Q 2534 3019 2420 3045 
Q 2306 3072 2169 3072 
Q 1681 3072 1420 2755 
Q 1159 2438 1159 1844 
L 1159 0 
L 581 0 
L 581 3500 
L 1159 3500 
L 1159 2956 
Q 1341 3275 1631 3429 
Q 1922 3584 2338 3584 
Q 2397 3584 2469 3576 
Q 2541 3569 2628 3553 
L 2631 2963 
z
" transform="scale(0.015625)"/>
       <path id="DejaVuSans-69" d="M 603 3500 
L 1178 3500 
L 1178 0 
L 603 0 
L 603 3500 
z
M 603 4863 
L 1178 4863 
L 1178 4134 
L 603 4134 
L 603 4863 
z
" transform="scale(0.015625)"/>
       <path id="DejaVuSans-73" d="M 2834 3397 
L 2834 2853 
Q 2591 2978 2328 3040 
Q 2066 3103 1784 3103 
Q 1356 3103 1142 2972 
Q 928 2841 928 2578 
Q 928 2378 1081 2264 
Q 1234 2150 1697 2047 
L 1894 2003 
Q 2506 1872 2764 1633 
Q 3022 1394 3022 966 
Q 3022 478 2636 193 
Q 2250 -91 1575 -91 
Q 1294 -91 989 -36 
Q 684 19 347 128 
L 347 722 
Q 666 556 975 473 
Q 1284 391 1588 391 
Q 1994 391 2212 530 
Q 2431 669 2431 922 
Q 2431 1156 2273 1281 
Q 2116 1406 1581 1522 
L 1381 1569 
Q 847 1681 609 1914 
Q 372 2147 372 2553 
Q 372 3047 722 3315 
Q 1072 3584 1716 3584 
Q 2034 3584 2315 3537 
Q 2597 3491 2834 3397 
z
" transform="scale(0.015625)"/>
       <path id="DejaVuSans-6f" d="M 1959 3097 
Q 1497 3097 1228 2736 
Q 959 2375 959 1747 
Q 959 1119 1226 758 
Q 1494 397 1959 397 
Q 2419 397 2687 759 
Q 2956 1122 2956 1747 
Q 2956 2369 2687 2733 
Q 2419 3097 1959 3097 
z
M 1959 3584 
Q 2709 3584 3137 3096 
Q 3566 2609 3566 1747 
Q 3566 888 3137 398 
Q 2709 -91 1959 -91 
Q 1206 -91 779 398 
Q 353 888 353 1747 
Q 353 2609 779 3096 
Q 1206 3584 1959 3584 
z
" transform="scale(0.015625)"/>
       <path id="DejaVuSans-6e" d="M 3513 2113 
L 3513 0 
L 2938 0 
L 2938 2094 
Q 2938 2591 2744 2837 
Q 2550 3084 2163 3084 
Q 1697 3084 1428 2787 
Q 1159 2491 1159 1978 
L 1159 0 
L 581 0 
L 581 3500 
L 1159 3500 
L 1159 2956 
Q 1366 3272 1645 3428 
Q 1925 3584 2291 3584 
Q 2894 3584 3203 3211 
Q 3513 2838 3513 2113 
z
" transform="scale(0.015625)"/>
      </defs>
      <use xlink:href="#DejaVuSans-50"/>
      <use xlink:href="#DejaVuSans-72" x="58.552734"/>
      <use xlink:href="#DejaVuSans-65" x="97.416016"/>
      <use xlink:href="#DejaVuSans-63" x="158.939453"/>
      <use xlink:href="#DejaVuSans-69" x="213.919922"/>
      <use xlink:href="#DejaVuSans-73" x="241.703125"/>
      <use xlink:href="#DejaVuSans-69" x="293.802734"/>
      <use xlink:href="#DejaVuSans-6f" x="321.585938"/>
      <use xlink:href="#DejaVuSans-6e" x="382.767578"/>
     </g>
    </g>
   </g>
   <g id="line2d_25">
    <path d="M 58.341176 55.101176 
L 140.766516 55.101176 
L 140.766516 55.101176 
L 151.517647 78.395294 
L 151.517647 78.395294 
L 151.517647 116.248235 
L 158.685068 120.324706 
L 162.268778 132.339567 
L 165.852489 153.694884 
L 169.436199 170.601176 
L 176.60362 178.16444 
L 180.18733 186.692508 
L 183.771041 190.983529 
L 187.354751 200.599819 
L 190.938462 220.334118 
L 194.522172 231.911949 
L 226.775566 230.948927 
L 241.110407 235.324087 
L 255.445249 235.393859 
L 266.19638 245.140956 
L 280.531222 250.771765 
L 287.698643 255.486719 
L 298.449774 260.501241 
L 309.200905 265.339457 
L 309.200905 270.402147 
L 312.784615 275.971765 
L 319.952036 279.914193 
L 319.952036 302.127168 
L 327.119457 304.785 
L 330.703167 307.673004 
L 330.703167 314.413052 
L 334.286878 316.996167 
L 334.286878 325.041958 
L 341.454299 324.844001 
L 345.038009 325.59108 
L 345.038009 328.512941 
L 348.621719 329.01422 
L 355.78914 328.964452 
L 355.78914 336.105882 
L 362.956561 335.924706 
L 362.956561 336.581142 
L 366.540271 336.982045 
L 373.707692 336.931242 
L 377.291403 336.702764 
L 377.291403 337.703875 
L 380.875113 337.92887 
L 380.875113 339.408869 
L 384.458824 339.302572 
L 384.458824 352.928351 
L 384.458824 352.928351 
" clip-path="url(#pd28344dfbe)" style="fill: none; stroke: #ff6666; stroke-width: 8; stroke-linecap: square"/>
   </g>
   <g id="line2d_26">
    <path d="M 58.341176 55.101176 
L 116.091176 55.101176 
L 126.282353 70.630588 
L 126.282353 84.748235 
L 133.076471 94.235294 
L 133.076471 94.235294 
L 136.473529 103.414902 
L 139.870588 111.328357 
L 143.267647 126.439412 
L 143.267647 160.869062 
L 146.664706 174.412511 
L 146.664706 188.512941 
L 153.458824 190.983529 
L 163.65 203.856594 
L 163.65 215.486905 
L 170.444118 213.064412 
L 173.841176 229.328413 
L 177.238235 234.883982 
L 180.635294 241.454118 
L 187.429412 247.966452 
L 187.429412 266.473725 
L 201.017647 266.118478 
L 211.208824 266.568088 
L 214.605882 274.825832 
L 224.797059 276.088793 
L 231.591176 281.626009 
L 231.591176 287.780621 
L 238.385294 290.725445 
L 241.782353 296.553665 
L 245.179412 298.179608 
L 248.576471 298.582678 
L 248.576471 301.119752 
L 258.767647 300.033418 
L 265.561765 301.646118 
L 268.958824 304.630588 
L 275.752941 306.942918 
L 289.341176 306.552157 
L 299.532353 306.767528 
L 302.929412 310.7069 
L 309.723529 312.268235 
L 309.723529 314.55389 
L 313.120588 316.512941 
L 316.517647 317.340109 
L 319.914706 320.121357 
L 319.914706 322.548125 
L 326.708824 322.798655 
L 326.708824 323.967059 
L 333.502941 324.165844 
L 333.502941 331.658731 
L 340.297059 333.141089 
L 347.091176 332.672414 
L 353.885294 333.694141 
L 357.282353 333.547141 
L 357.282353 335.227873 
L 364.076471 335.214767 
L 364.076471 336.340248 
L 370.870588 336.835948 
L 370.870588 338.961326 
L 374.267647 339.036708 
L 374.267647 346.317856 
L 377.664706 346.501883 
L 377.664706 349.451923 
L 381.061765 349.31236 
L 381.061765 349.377943 
L 381.061765 349.669764 
L 384.458824 349.627205 
L 384.458824 349.722552 
L 384.458824 350.675122 
L 384.458824 350.675122 
" clip-path="url(#pd28344dfbe)" style="fill: none; stroke: #66ff66; stroke-width: 8; stroke-linecap: square"/>
   </g>
   <g id="line2d_27">
    <path d="M 58.341176 55.101176 
L 113.929412 55.101176 
L 117.635294 74.284567 
L 121.341176 73.218824 
L 121.341176 73.218824 
L 128.752941 71.407059 
L 132.458824 84.748235 
L 139.870588 105.273122 
L 139.870588 115.493333 
L 143.576471 113.336471 
L 143.576471 113.336471 
L 150.988235 118.220721 
L 150.988235 148.277647 
L 158.4 155.445068 
L 158.4 171.571765 
L 165.811765 175.622916 
L 169.517647 189.384913 
L 169.517647 189.384913 
L 169.517647 203.336471 
L 176.929412 218.16 
L 176.929412 238.263143 
L 188.047059 232.983529 
L 195.458824 239.26173 
L 199.164706 241.977581 
L 199.164706 250.771765 
L 202.870588 254.032941 
L 202.870588 257.737384 
L 210.282353 261.836471 
L 213.988235 274.211471 
L 213.988235 281.965627 
L 221.4 292.093504 
L 236.223529 293.768281 
L 236.223529 304.48526 
L 243.635294 308.748235 
L 254.752941 307.037556 
L 262.164706 309.184805 
L 262.164706 312.496714 
L 269.576471 314.111582 
L 273.282353 317.317393 
L 276.988235 320.329769 
L 280.694118 321.563156 
L 284.4 323.724094 
L 284.4 327.885911 
L 288.105882 329.37448 
L 295.517647 330.312654 
L 302.929412 330.929654 
L 306.635294 331.89629 
L 317.752941 331.484106 
L 321.458824 332.162991 
L 328.870588 331.724877 
L 332.576471 333.145704 
L 332.576471 335.075982 
L 339.988235 335.405624 
L 339.988235 338.995755 
L 347.4 338.610488 
L 354.811765 338.658609 
L 354.811765 339.542447 
L 358.517647 339.815172 
L 358.517647 340.766252 
L 362.223529 341.0662 
L 362.223529 342.065607 
L 365.929412 342.495269 
L 365.929412 345.319931 
L 369.635294 345.268847 
L 369.635294 346.233022 
L 373.341176 346.438397 
L 373.341176 350.890596 
L 377.047059 350.800041 
L 377.047059 350.898696 
L 377.047059 352.629509 
L 380.752941 352.326527 
L 380.752941 352.732644 
L 384.458824 352.462959 
L 384.458824 352.54914 
L 384.458824 353.38337 
L 384.458824 353.38337 
" clip-path="url(#pd28344dfbe)" style="fill: none; stroke: #6666ff; stroke-width: 8; stroke-linecap: square"/>
   </g>
   <g id="line2d_28">
    <path d="M 58.341176 55.101176 
L 98.2 55.101176 
L 112.694118 75.483529 
L 112.694118 75.483529 
L 112.694118 93.467958 
L 123.564706 87.712941 
L 123.564706 87.712941 
L 130.811765 84.748235 
L 134.435294 83.459233 
L 141.682353 81.190588 
L 145.305882 91.336471 
L 145.305882 101.689412 
L 148.929412 109.454118 
L 148.929412 118.220721 
L 156.176471 114.395294 
L 159.8 120.324706 
L 159.8 163.807059 
L 163.423529 171.054118 
L 163.423529 188.21042 
L 174.294118 191.477647 
L 174.294118 201.291846 
L 181.541176 205.218824 
L 185.164706 210.858859 
L 192.411765 208.842353 
L 192.411765 234.068178 
L 203.282353 237.870407 
L 203.282353 246.73732 
L 206.905882 256.257856 
L 214.152941 258.209536 
L 214.152941 264.36 
L 225.023529 260.239696 
L 228.647059 267.681569 
L 228.647059 278.349499 
L 232.270588 283.991202 
L 235.894118 288.850241 
L 243.141176 289.329321 
L 250.388235 293.03395 
L 254.011765 296.144655 
L 257.635294 301.853909 
L 261.258824 306.98066 
L 264.882353 311.072764 
L 264.882353 322.019123 
L 272.129412 323.089092 
L 275.752941 325.472217 
L 279.376471 326.865882 
L 279.376471 330.983529 
L 286.623529 331.949251 
L 290.247059 332.793001 
L 297.494118 333.599875 
L 304.741176 335.961681 
L 308.364706 336.660175 
L 315.611765 336.605427 
L 315.611765 337.695604 
L 319.235294 338.604539 
L 322.858824 339.305816 
L 326.482353 339.682325 
L 326.482353 341.526873 
L 330.105882 342.271652 
L 330.105882 346.277647 
L 337.352941 345.999947 
L 340.976471 346.133063 
L 344.6 346.544134 
L 344.6 348.524288 
L 348.223529 348.566243 
L 348.223529 348.769306 
L 351.847059 348.807131 
L 351.847059 349.392884 
L 355.470588 349.154499 
L 355.470588 350.015035 
L 359.094118 349.817704 
L 359.094118 351.539257 
L 362.717647 351.377993 
L 362.717647 353.180049 
L 369.964706 352.774485 
L 369.964706 352.860767 
L 369.964706 352.946528 
L 384.458824 352.014258 
L 384.458824 352.043289 
L 384.458824 352.667668 
L 384.458824 352.667668 
" clip-path="url(#pd28344dfbe)" style="fill: none; stroke: #ffb366; stroke-width: 8; stroke-linecap: square"/>
   </g>
   <g id="patch_3">
    <path d="M 55.08 384.48 
L 55.08 51.84 
" style="fill: none; stroke: #000000; stroke-width: 0.8; stroke-linejoin: miter; stroke-linecap: square"/>
   </g>
   <g id="patch_4">
    <path d="M 387.72 384.48 
L 387.72 51.84 
" style="fill: none; stroke: #000000; stroke-width: 0.8; stroke-linejoin: miter; stroke-linecap: square"/>
   </g>
   <g id="patch_5">
    <path d="M 55.08 384.48 
L 387.72 384.48 
" style="fill: none; stroke: #000000; stroke-width: 0.8; stroke-linejoin: miter; stroke-linecap: square"/>
   </g>
   <g id="patch_6">
    <path d="M 55.08 51.84 
L 387.72 51.84 
" style="fill: none; stroke: #000000; stroke-width: 0.8; stroke-linejoin: miter; stroke-linecap: square"/>
   </g>
   <g id="text_15">
    <!-- Precision - Recall Curve: Sequence 07 -->
    <g transform="translate(89.188594 45.84)scale(0.14 -0.14)">
     <defs>
      <path id="DejaVuSans-20" transform="scale(0.015625)"/>
      <path id="DejaVuSans-2d" d="M 313 2009 
L 1997 2009 
L 1997 1497 
L 313 1497 
L 313 2009 
z
" transform="scale(0.015625)"/>
      <path id="DejaVuSans-43" d="M 4122 4306 
L 4122 3641 
Q 3803 3938 3442 4084 
Q 3081 4231 2675 4231 
Q 1875 4231 1450 3742 
Q 1025 3253 1025 2328 
Q 1025 1406 1450 917 
Q 1875 428 2675 428 
Q 3081 428 3442 575 
Q 3803 722 4122 1019 
L 4122 359 
Q 3791 134 3420 21 
Q 3050 -91 2638 -91 
Q 1578 -91 968 557 
Q 359 1206 359 2328 
Q 359 3453 968 4101 
Q 1578 4750 2638 4750 
Q 3056 4750 3426 4639 
Q 3797 4528 4122 4306 
z
" transform="scale(0.015625)"/>
      <path id="DejaVuSans-75" d="M 544 1381 
L 544 3500 
L 1119 3500 
L 1119 1403 
Q 1119 906 1312 657 
Q 1506 409 1894 409 
Q 2359 409 2629 706 
Q 2900 1003 2900 1516 
L 2900 3500 
L 3475 3500 
L 3475 0 
L 2900 0 
L 2900 538 
Q 2691 219 2414 64 
Q 2138 -91 1772 -91 
Q 1169 -91 856 284 
Q 544 659 544 1381 
z
M 1991 3584 
L 1991 3584 
z
" transform="scale(0.015625)"/>
      <path id="DejaVuSans-76" d="M 191 3500 
L 800 3500 
L 1894 563 
L 2988 3500 
L 3597 3500 
L 2284 0 
L 1503 0 
L 191 3500 
z
" transform="scale(0.015625)"/>
      <path id="DejaVuSans-3a" d="M 750 794 
L 1409 794 
L 1409 0 
L 750 0 
L 750 794 
z
M 750 3309 
L 1409 3309 
L 1409 2516 
L 750 2516 
L 750 3309 
z
" transform="scale(0.015625)"/>
      <path id="DejaVuSans-53" d="M 3425 4513 
L 3425 3897 
Q 3066 4069 2747 4153 
Q 2428 4238 2131 4238 
Q 1616 4238 1336 4038 
Q 1056 3838 1056 3469 
Q 1056 3159 1242 3001 
Q 1428 2844 1947 2747 
L 2328 2669 
Q 3034 2534 3370 2195 
Q 3706 1856 3706 1288 
Q 3706 609 3251 259 
Q 2797 -91 1919 -91 
Q 1588 -91 1214 -16 
Q 841 59 441 206 
L 441 856 
Q 825 641 1194 531 
Q 1563 422 1919 422 
Q 2459 422 2753 634 
Q 3047 847 3047 1241 
Q 3047 1584 2836 1778 
Q 2625 1972 2144 2069 
L 1759 2144 
Q 1053 2284 737 2584 
Q 422 2884 422 3419 
Q 422 4038 858 4394 
Q 1294 4750 2059 4750 
Q 2388 4750 2728 4690 
Q 3069 4631 3425 4513 
z
" transform="scale(0.015625)"/>
      <path id="DejaVuSans-71" d="M 947 1747 
Q 947 1113 1208 752 
Q 1469 391 1925 391 
Q 2381 391 2643 752 
Q 2906 1113 2906 1747 
Q 2906 2381 2643 2742 
Q 2381 3103 1925 3103 
Q 1469 3103 1208 2742 
Q 947 2381 947 1747 
z
M 2906 525 
Q 2725 213 2448 61 
Q 2172 -91 1784 -91 
Q 1150 -91 751 415 
Q 353 922 353 1747 
Q 353 2572 751 3078 
Q 1150 3584 1784 3584 
Q 2172 3584 2448 3432 
Q 2725 3281 2906 2969 
L 2906 3500 
L 3481 3500 
L 3481 -1331 
L 2906 -1331 
L 2906 525 
z
" transform="scale(0.015625)"/>
      <path id="DejaVuSans-37" d="M 525 4666 
L 3525 4666 
L 3525 4397 
L 1831 0 
L 1172 0 
L 2766 4134 
L 525 4134 
L 525 4666 
z
" transform="scale(0.015625)"/>
     </defs>
     <use xlink:href="#DejaVuSans-50"/>
     <use xlink:href="#DejaVuSans-72" x="58.552734"/>
     <use xlink:href="#DejaVuSans-65" x="97.416016"/>
     <use xlink:href="#DejaVuSans-63" x="158.939453"/>
     <use xlink:href="#DejaVuSans-69" x="213.919922"/>
     <use xlink:href="#DejaVuSans-73" x="241.703125"/>
     <use xlink:href="#DejaVuSans-69" x="293.802734"/>
     <use xlink:href="#DejaVuSans-6f" x="321.585938"/>
     <use xlink:href="#DejaVuSans-6e" x="382.767578"/>
     <use xlink:href="#DejaVuSans-20" x="446.146484"/>
     <use xlink:href="#DejaVuSans-2d" x="477.933594"/>
     <use xlink:href="#DejaVuSans-20" x="514.017578"/>
     <use xlink:href="#DejaVuSans-52" x="545.804688"/>
     <use xlink:href="#DejaVuSans-65" x="610.787109"/>
     <use xlink:href="#DejaVuSans-63" x="672.310547"/>
     <use xlink:href="#DejaVuSans-61" x="727.291016"/>
     <use xlink:href="#DejaVuSans-6c" x="788.570312"/>
     <use xlink:href="#DejaVuSans-6c" x="816.353516"/>
     <use xlink:href="#DejaVuSans-20" x="844.136719"/>
     <use xlink:href="#DejaVuSans-43" x="875.923828"/>
     <use xlink:href="#DejaVuSans-75" x="945.748047"/>
     <use xlink:href="#DejaVuSans-72" x="1009.126953"/>
     <use xlink:href="#DejaVuSans-76" x="1050.240234"/>
     <use xlink:href="#DejaVuSans-65" x="1109.419922"/>
     <use xlink:href="#DejaVuSans-3a" x="1170.943359"/>
     <use xlink:href="#DejaVuSans-20" x="1204.634766"/>
     <use xlink:href="#DejaVuSans-53" x="1236.421875"/>
     <use xlink:href="#DejaVuSans-65" x="1299.898438"/>
     <use xlink:href="#DejaVuSans-71" x="1361.421875"/>
     <use xlink:href="#DejaVuSans-75" x="1424.898438"/>
     <use xlink:href="#DejaVuSans-65" x="1488.277344"/>
     <use xlink:href="#DejaVuSans-6e" x="1549.800781"/>
     <use xlink:href="#DejaVuSans-63" x="1613.179688"/>
     <use xlink:href="#DejaVuSans-65" x="1668.160156"/>
     <use xlink:href="#DejaVuSans-20" x="1729.683594"/>
     <use xlink:href="#DejaVuSans-30" x="1761.470703"/>
     <use xlink:href="#DejaVuSans-37" x="1825.09375"/>
    </g>
   </g>
   <g id="legend_1">
    <g id="patch_7">
     <path d="M 266.591562 145.2375 
L 377.92 145.2375 
Q 380.72 145.2375 380.72 142.4375 
L 380.72 61.64 
Q 380.72 58.84 377.92 58.84 
L 266.591562 58.84 
Q 263.791562 58.84 263.791562 61.64 
L 263.791562 142.4375 
Q 263.791562 145.2375 266.591562 145.2375 
z
" style="fill: #ffffff; opacity: 0.8; stroke: #cccccc; stroke-linejoin: miter"/>
    </g>
    <g id="line2d_29">
     <path d="M 269.391562 70.177812 
L 283.391562 70.177812 
L 297.391562 70.177812 
" style="fill: none; stroke: #ff6666; stroke-width: 8; stroke-linecap: square"/>
    </g>
    <g id="text_16">
     <!-- L=4, T=1 -->
     <g transform="translate(308.591562 75.077812)scale(0.14 -0.14)">
      <defs>
       <path id="DejaVuSans-4c" d="M 628 4666 
L 1259 4666 
L 1259 531 
L 3531 531 
L 3531 0 
L 628 0 
L 628 4666 
z
" transform="scale(0.015625)"/>
       <path id="DejaVuSans-3d" d="M 678 2906 
L 4684 2906 
L 4684 2381 
L 678 2381 
L 678 2906 
z
M 678 1631 
L 4684 1631 
L 4684 1100 
L 678 1100 
L 678 1631 
z
" transform="scale(0.015625)"/>
       <path id="DejaVuSans-2c" d="M 750 794 
L 1409 794 
L 1409 256 
L 897 -744 
L 494 -744 
L 750 256 
L 750 794 
z
" transform="scale(0.015625)"/>
       <path id="DejaVuSans-54" d="M -19 4666 
L 3928 4666 
L 3928 4134 
L 2272 4134 
L 2272 0 
L 1638 0 
L 1638 4134 
L -19 4134 
L -19 4666 
z
" transform="scale(0.015625)"/>
      </defs>
      <use xlink:href="#DejaVuSans-4c"/>
      <use xlink:href="#DejaVuSans-3d" x="55.712891"/>
      <use xlink:href="#DejaVuSans-34" x="139.501953"/>
      <use xlink:href="#DejaVuSans-2c" x="203.125"/>
      <use xlink:href="#DejaVuSans-20" x="234.912109"/>
      <use xlink:href="#DejaVuSans-54" x="266.699219"/>
      <use xlink:href="#DejaVuSans-3d" x="327.783203"/>
      <use xlink:href="#DejaVuSans-31" x="411.572266"/>
     </g>
    </g>
    <g id="line2d_30">
     <path d="M 269.391562 90.727187 
L 283.391562 90.727187 
L 297.391562 90.727187 
" style="fill: none; stroke: #66ff66; stroke-width: 8; stroke-linecap: square"/>
    </g>
    <g id="text_17">
     <!-- L=4, T=2 -->
     <g transform="translate(308.591562 95.627187)scale(0.14 -0.14)">
      <use xlink:href="#DejaVuSans-4c"/>
      <use xlink:href="#DejaVuSans-3d" x="55.712891"/>
      <use xlink:href="#DejaVuSans-34" x="139.501953"/>
      <use xlink:href="#DejaVuSans-2c" x="203.125"/>
      <use xlink:href="#DejaVuSans-20" x="234.912109"/>
      <use xlink:href="#DejaVuSans-54" x="266.699219"/>
      <use xlink:href="#DejaVuSans-3d" x="327.783203"/>
      <use xlink:href="#DejaVuSans-32" x="411.572266"/>
     </g>
    </g>
    <g id="line2d_31">
     <path d="M 269.391562 111.276562 
L 283.391562 111.276562 
L 297.391562 111.276562 
" style="fill: none; stroke: #6666ff; stroke-width: 8; stroke-linecap: square"/>
    </g>
    <g id="text_18">
     <!-- L=4, T=4 -->
     <g transform="translate(308.591562 116.176562)scale(0.14 -0.14)">
      <use xlink:href="#DejaVuSans-4c"/>
      <use xlink:href="#DejaVuSans-3d" x="55.712891"/>
      <use xlink:href="#DejaVuSans-34" x="139.501953"/>
      <use xlink:href="#DejaVuSans-2c" x="203.125"/>
      <use xlink:href="#DejaVuSans-20" x="234.912109"/>
      <use xlink:href="#DejaVuSans-54" x="266.699219"/>
      <use xlink:href="#DejaVuSans-3d" x="327.783203"/>
      <use xlink:href="#DejaVuSans-34" x="411.572266"/>
     </g>
    </g>
    <g id="line2d_32">
     <path d="M 269.391562 131.825937 
L 283.391562 131.825937 
L 297.391562 131.825937 
" style="fill: none; stroke: #ffb366; stroke-width: 8; stroke-linecap: square"/>
    </g>
    <g id="text_19">
     <!-- L=4, T=8 -->
     <g transform="translate(308.591562 136.725937)scale(0.14 -0.14)">
      <use xlink:href="#DejaVuSans-4c"/>
      <use xlink:href="#DejaVuSans-3d" x="55.712891"/>
      <use xlink:href="#DejaVuSans-34" x="139.501953"/>
      <use xlink:href="#DejaVuSans-2c" x="203.125"/>
      <use xlink:href="#DejaVuSans-20" x="234.912109"/>
      <use xlink:href="#DejaVuSans-54" x="266.699219"/>
      <use xlink:href="#DejaVuSans-3d" x="327.783203"/>
      <use xlink:href="#DejaVuSans-38" x="411.572266"/>
     </g>
    </g>
   </g>
  </g>
 </g>
 <defs>
  <clipPath id="pd28344dfbe">
   <rect x="55.08" y="51.84" width="332.64" height="332.64"/>
  </clipPath>
 </defs>
</svg>
